<svg version="1.1" xmlns="http://www.w3.org/2000/svg" xmlns:xlink="http://www.w3.org/1999/xlink" width="692" height="468"><defs/><g><text fill="#eeeeee" stroke="none" font-family="Arial" font-size="24px" font-style="normal" font-weight="normal" text-decoration="none" x="0" y="0">UNREGISTERED</text><text fill="#eeeeee" stroke="none" font-family="Arial" font-size="24px" font-style="normal" font-weight="normal" text-decoration="none" x="0" y="30">UNREGISTERED</text><text fill="#eeeeee" stroke="none" font-family="Arial" font-size="24px" font-style="normal" font-weight="normal" text-decoration="none" x="0" y="60">UNREGISTERED</text><text fill="#eeeeee" stroke="none" font-family="Arial" font-size="24px" font-style="normal" font-weight="normal" text-decoration="none" x="0" y="90">UNREGISTERED</text><text fill="#eeeeee" stroke="none" font-family="Arial" font-size="24px" font-style="normal" font-weight="normal" text-decoration="none" x="0" y="120">UNREGISTERED</text><text fill="#eeeeee" stroke="none" font-family="Arial" font-size="24px" font-style="normal" font-weight="normal" text-decoration="none" x="0" y="150">UNREGISTERED</text><text fill="#eeeeee" stroke="none" font-family="Arial" font-size="24px" font-style="normal" font-weight="normal" text-decoration="none" x="0" y="180">UNREGISTERED</text><text fill="#eeeeee" stroke="none" font-family="Arial" font-size="24px" font-style="normal" font-weight="normal" text-decoration="none" x="0" y="210">UNREGISTERED</text><text fill="#eeeeee" stroke="none" font-family="Arial" font-size="24px" font-style="normal" font-weight="normal" text-decoration="none" x="0" y="240">UNREGISTERED</text><text fill="#eeeeee" stroke="none" font-family="Arial" font-size="24px" font-style="normal" font-weight="normal" text-decoration="none" x="0" y="270">UNREGISTERED</text><text fill="#eeeeee" stroke="none" font-family="Arial" font-size="24px" font-style="normal" font-weight="normal" text-decoration="none" x="0" y="300">UNREGISTERED</text><text fill="#eeeeee" stroke="none" font-family="Arial" font-size="24px" font-style="normal" font-weight="normal" text-decoration="none" x="0" y="330">UNREGISTERED</text><text fill="#eeeeee" stroke="none" font-family="Arial" font-size="24px" font-style="normal" font-weight="normal" text-decoration="none" x="0" y="360">UNREGISTERED</text><text fill="#eeeeee" stroke="none" font-family="Arial" font-size="24px" font-style="normal" font-weight="normal" text-decoration="none" x="0" y="390">UNREGISTERED</text><text fill="#eeeeee" stroke="none" font-family="Arial" font-size="24px" font-style="normal" font-weight="normal" text-decoration="none" x="0" y="420">UNREGISTERED</text><text fill="#eeeeee" stroke="none" font-family="Arial" font-size="24px" font-style="normal" font-weight="normal" text-decoration="none" x="0" y="450">UNREGISTERED</text><text fill="#eeeeee" stroke="none" font-family="Arial" font-size="24px" font-style="normal" font-weight="normal" text-decoration="none" x="200" y="0">UNREGISTERED</text><text fill="#eeeeee" stroke="none" font-family="Arial" font-size="24px" font-style="normal" font-weight="normal" text-decoration="none" x="200" y="30">UNREGISTERED</text><text fill="#eeeeee" stroke="none" font-family="Arial" font-size="24px" font-style="normal" font-weight="normal" text-decoration="none" x="200" y="60">UNREGISTERED</text><text fill="#eeeeee" stroke="none" font-family="Arial" font-size="24px" font-style="normal" font-weight="normal" text-decoration="none" x="200" y="90">UNREGISTERED</text><text fill="#eeeeee" stroke="none" font-family="Arial" font-size="24px" font-style="normal" font-weight="normal" text-decoration="none" x="200" y="120">UNREGISTERED</text><text fill="#eeeeee" stroke="none" font-family="Arial" font-size="24px" font-style="normal" font-weight="normal" text-decoration="none" x="200" y="150">UNREGISTERED</text><text fill="#eeeeee" stroke="none" font-family="Arial" font-size="24px" font-style="normal" font-weight="normal" text-decoration="none" x="200" y="180">UNREGISTERED</text><text fill="#eeeeee" stroke="none" font-family="Arial" font-size="24px" font-style="normal" font-weight="normal" text-decoration="none" x="200" y="210">UNREGISTERED</text><text fill="#eeeeee" stroke="none" font-family="Arial" font-size="24px" font-style="normal" font-weight="normal" text-decoration="none" x="200" y="240">UNREGISTERED</text><text fill="#eeeeee" stroke="none" font-family="Arial" font-size="24px" font-style="normal" font-weight="normal" text-decoration="none" x="200" y="270">UNREGISTERED</text><text fill="#eeeeee" stroke="none" font-family="Arial" font-size="24px" font-style="normal" font-weight="normal" text-decoration="none" x="200" y="300">UNREGISTERED</text><text fill="#eeeeee" stroke="none" font-family="Arial" font-size="24px" font-style="normal" font-weight="normal" text-decoration="none" x="200" y="330">UNREGISTERED</text><text fill="#eeeeee" stroke="none" font-family="Arial" font-size="24px" font-style="normal" font-weight="normal" text-decoration="none" x="200" y="360">UNREGISTERED</text><text fill="#eeeeee" stroke="none" font-family="Arial" font-size="24px" font-style="normal" font-weight="normal" text-decoration="none" x="200" y="390">UNREGISTERED</text><text fill="#eeeeee" stroke="none" font-family="Arial" font-size="24px" font-style="normal" font-weight="normal" text-decoration="none" x="200" y="420">UNREGISTERED</text><text fill="#eeeeee" stroke="none" font-family="Arial" font-size="24px" font-style="normal" font-weight="normal" text-decoration="none" x="200" y="450">UNREGISTERED</text><text fill="#eeeeee" stroke="none" font-family="Arial" font-size="24px" font-style="normal" font-weight="normal" text-decoration="none" x="400" y="0">UNREGISTERED</text><text fill="#eeeeee" stroke="none" font-family="Arial" font-size="24px" font-style="normal" font-weight="normal" text-decoration="none" x="400" y="30">UNREGISTERED</text><text fill="#eeeeee" stroke="none" font-family="Arial" font-size="24px" font-style="normal" font-weight="normal" text-decoration="none" x="400" y="60">UNREGISTERED</text><text fill="#eeeeee" stroke="none" font-family="Arial" font-size="24px" font-style="normal" font-weight="normal" text-decoration="none" x="400" y="90">UNREGISTERED</text><text fill="#eeeeee" stroke="none" font-family="Arial" font-size="24px" font-style="normal" font-weight="normal" text-decoration="none" x="400" y="120">UNREGISTERED</text><text fill="#eeeeee" stroke="none" font-family="Arial" font-size="24px" font-style="normal" font-weight="normal" text-decoration="none" x="400" y="150">UNREGISTERED</text><text fill="#eeeeee" stroke="none" font-family="Arial" font-size="24px" font-style="normal" font-weight="normal" text-decoration="none" x="400" y="180">UNREGISTERED</text><text fill="#eeeeee" stroke="none" font-family="Arial" font-size="24px" font-style="normal" font-weight="normal" text-decoration="none" x="400" y="210">UNREGISTERED</text><text fill="#eeeeee" stroke="none" font-family="Arial" font-size="24px" font-style="normal" font-weight="normal" text-decoration="none" x="400" y="240">UNREGISTERED</text><text fill="#eeeeee" stroke="none" font-family="Arial" font-size="24px" font-style="normal" font-weight="normal" text-decoration="none" x="400" y="270">UNREGISTERED</text><text fill="#eeeeee" stroke="none" font-family="Arial" font-size="24px" font-style="normal" font-weight="normal" text-decoration="none" x="400" y="300">UNREGISTERED</text><text fill="#eeeeee" stroke="none" font-family="Arial" font-size="24px" font-style="normal" font-weight="normal" text-decoration="none" x="400" y="330">UNREGISTERED</text><text fill="#eeeeee" stroke="none" font-family="Arial" font-size="24px" font-style="normal" font-weight="normal" text-decoration="none" x="400" y="360">UNREGISTERED</text><text fill="#eeeeee" stroke="none" font-family="Arial" font-size="24px" font-style="normal" font-weight="normal" text-decoration="none" x="400" y="390">UNREGISTERED</text><text fill="#eeeeee" stroke="none" font-family="Arial" font-size="24px" font-style="normal" font-weight="normal" text-decoration="none" x="400" y="420">UNREGISTERED</text><text fill="#eeeeee" stroke="none" font-family="Arial" font-size="24px" font-style="normal" font-weight="normal" text-decoration="none" x="400" y="450">UNREGISTERED</text><text fill="#eeeeee" stroke="none" font-family="Arial" font-size="24px" font-style="normal" font-weight="normal" text-decoration="none" x="600" y="0">UNREGISTERED</text><text fill="#eeeeee" stroke="none" font-family="Arial" font-size="24px" font-style="normal" font-weight="normal" text-decoration="none" x="600" y="30">UNREGISTERED</text><text fill="#eeeeee" stroke="none" font-family="Arial" font-size="24px" font-style="normal" font-weight="normal" text-decoration="none" x="600" y="60">UNREGISTERED</text><text fill="#eeeeee" stroke="none" font-family="Arial" font-size="24px" font-style="normal" font-weight="normal" text-decoration="none" x="600" y="90">UNREGISTERED</text><text fill="#eeeeee" stroke="none" font-family="Arial" font-size="24px" font-style="normal" font-weight="normal" text-decoration="none" x="600" y="120">UNREGISTERED</text><text fill="#eeeeee" stroke="none" font-family="Arial" font-size="24px" font-style="normal" font-weight="normal" text-decoration="none" x="600" y="150">UNREGISTERED</text><text fill="#eeeeee" stroke="none" font-family="Arial" font-size="24px" font-style="normal" font-weight="normal" text-decoration="none" x="600" y="180">UNREGISTERED</text><text fill="#eeeeee" stroke="none" font-family="Arial" font-size="24px" font-style="normal" font-weight="normal" text-decoration="none" x="600" y="210">UNREGISTERED</text><text fill="#eeeeee" stroke="none" font-family="Arial" font-size="24px" font-style="normal" font-weight="normal" text-decoration="none" x="600" y="240">UNREGISTERED</text><text fill="#eeeeee" stroke="none" font-family="Arial" font-size="24px" font-style="normal" font-weight="normal" text-decoration="none" x="600" y="270">UNREGISTERED</text><text fill="#eeeeee" stroke="none" font-family="Arial" font-size="24px" font-style="normal" font-weight="normal" text-decoration="none" x="600" y="300">UNREGISTERED</text><text fill="#eeeeee" stroke="none" font-family="Arial" font-size="24px" font-style="normal" font-weight="normal" text-decoration="none" x="600" y="330">UNREGISTERED</text><text fill="#eeeeee" stroke="none" font-family="Arial" font-size="24px" font-style="normal" font-weight="normal" text-decoration="none" x="600" y="360">UNREGISTERED</text><text fill="#eeeeee" stroke="none" font-family="Arial" font-size="24px" font-style="normal" font-weight="normal" text-decoration="none" x="600" y="390">UNREGISTERED</text><text fill="#eeeeee" stroke="none" font-family="Arial" font-size="24px" font-style="normal" font-weight="normal" text-decoration="none" x="600" y="420">UNREGISTERED</text><text fill="#eeeeee" stroke="none" font-family="Arial" font-size="24px" font-style="normal" font-weight="normal" text-decoration="none" x="600" y="450">UNREGISTERED</text><g transform="translate(-206,-110) scale(1,1)"><rect fill="#C0C0C0" stroke="none" x="447" y="127" width="448" height="448" opacity="0.2"/></g><g transform="translate(-206,-110) scale(1,1)"><rect fill="#ffffff" stroke="none" x="440" y="120" width="448" height="448"/></g><g transform="translate(-206,-110) scale(1,1)"><path fill="none" stroke="#000000" d="M 440 120 L 888 120 L 888 568 L 440 568 L 440 120 Z Z" stroke-miterlimit="10"/></g><g transform="translate(-206,-110) scale(1,1)"><g><path fill="none" stroke="none"/><text fill="#000000" stroke="none" font-family="Arial" font-size="13px" font-style="normal" font-weight="bold" text-decoration="none" x="593.57275390625" y="138">Site web non connecté</text></g></g><g transform="translate(-206,-110) scale(1,1)"><path fill="#ffffff" stroke="none" d="M 269.60978977272725 313.68 C 269.60978977272725 308.886167936 273.49563209767274 305 278.2890625 305 C 283.08249290232726 305 286.96833522727275 308.886167936 286.96833522727275 313.68 C 286.96833522727275 318.473832064 283.08249290232726 322.36 278.2890625 322.36 C 273.49563209767274 322.36 269.60978977272725 318.473832064 269.60978977272725 313.68 Z"/></g><g transform="translate(-206,-110) scale(1,1)"><path fill="none" stroke="#000000" d="M 269.60978977272725 313.68 C 269.60978977272725 308.886167936 273.49563209767274 305 278.2890625 305 C 283.08249290232726 305 286.96833522727275 308.886167936 286.96833522727275 313.68 C 286.96833522727275 318.473832064 283.08249290232726 322.36 278.2890625 322.36 C 273.49563209767274 322.36 269.60978977272725 318.473832064 269.60978977272725 313.68 Z" stroke-miterlimit="10"/></g><g transform="translate(-206,-110) scale(1,1)"><path fill="none" stroke="#000000" d="M 278.2890625 322.36 L 278.2890625 339.64" stroke-miterlimit="10"/></g><g transform="translate(-206,-110) scale(1,1)"><path fill="none" stroke="#000000" d="M 269.09924431818183 328.84 L 287.47888068181817 328.84" stroke-miterlimit="10"/></g><g transform="translate(-206,-110) scale(1,1)"><path fill="none" stroke="#000000" d="M 278.2890625 339.64 L 265.52542613636365 357" stroke-miterlimit="10"/></g><g transform="translate(-206,-110) scale(1,1)"><path fill="none" stroke="#000000" d="M 278.2890625 339.64 L 291.05269886363635 357" stroke-miterlimit="10"/></g><g transform="translate(-206,-110) scale(1,1)"><g><path fill="none" stroke="none"/><text fill="#000000" stroke="none" font-family="Arial" font-size="13px" font-style="normal" font-weight="bold" text-decoration="none" x="220.5" y="376">user non connecté</text></g></g><g transform="translate(-206,-110) scale(1,1)"><path fill="#C0C0C0" stroke="none" d="M 567 227 C 567 215.954304 610.4283743999999 207 664 207 C 717.5716256000001 207 761 215.954304 761 227 C 761 238.045696 717.5716256000001 247 664 247 C 610.4283743999999 247 567 238.045696 567 227 Z" opacity="0.2"/></g><g transform="translate(-206,-110) scale(1,1)"><path fill="#ffffff" stroke="none" d="M 560 220 C 560 208.954304 603.4283743999999 200 657 200 C 710.5716256000001 200 754 208.954304 754 220 C 754 231.045696 710.5716256000001 240 657 240 C 603.4283743999999 240 560 231.045696 560 220 Z"/></g><g transform="translate(-206,-110) scale(1,1)"><path fill="none" stroke="#000000" d="M 560 220 C 560 208.954304 603.4283743999999 200 657 200 C 710.5716256000001 200 754 208.954304 754 220 C 754 231.045696 710.5716256000001 240 657 240 C 603.4283743999999 240 560 231.045696 560 220 Z" stroke-miterlimit="10"/></g><g transform="translate(-206,-110) scale(1,1)"><g><path fill="none" stroke="none"/><text fill="#000000" stroke="none" font-family="Arial" font-size="13px" font-style="normal" font-weight="bold" text-decoration="none" x="593.056884765625" y="225.5">chercher des projets</text></g></g><g transform="translate(-206,-110) scale(1,1)"><path fill="#C0C0C0" stroke="none" d="M 607 304 C 607 294.6111584 635.2060576 287 670 287 C 704.7939424 287 733 294.6111584 733 304 C 733 313.3888416 704.7939424 321 670 321 C 635.2060576 321 607 313.3888416 607 304 Z" opacity="0.2"/></g><g transform="translate(-206,-110) scale(1,1)"><path fill="#ffffff" stroke="none" d="M 600 297 C 600 287.6111584 628.2060576 280 663 280 C 697.7939424 280 726 287.6111584 726 297 C 726 306.3888416 697.7939424 314 663 314 C 628.2060576 314 600 306.3888416 600 297 Z"/></g><g transform="translate(-206,-110) scale(1,1)"><path fill="none" stroke="#000000" d="M 600 297 C 600 287.6111584 628.2060576 280 663 280 C 697.7939424 280 726 287.6111584 726 297 C 726 306.3888416 697.7939424 314 663 314 C 628.2060576 314 600 306.3888416 600 297 Z" stroke-miterlimit="10"/></g><g transform="translate(-206,-110) scale(1,1)"><g><path fill="none" stroke="none"/><text fill="#000000" stroke="none" font-family="Arial" font-size="13px" font-style="normal" font-weight="bold" text-decoration="none" x="622.898681640625" y="302">se connecter</text></g></g><g transform="translate(-206,-110) scale(1,1)"><path fill="#C0C0C0" stroke="none" d="M 607 384 C 607 374.6111584 629.6096176 367 657.5 367 C 685.3903824 367 708 374.6111584 708 384 C 708 393.3888416 685.3903824 401 657.5 401 C 629.6096176 401 607 393.3888416 607 384 Z" opacity="0.2"/></g><g transform="translate(-206,-110) scale(1,1)"><path fill="#ffffff" stroke="none" d="M 600 377 C 600 367.6111584 622.6096176 360 650.5 360 C 678.3903824 360 701 367.6111584 701 377 C 701 386.3888416 678.3903824 394 650.5 394 C 622.6096176 394 600 386.3888416 600 377 Z"/></g><g transform="translate(-206,-110) scale(1,1)"><path fill="none" stroke="#000000" d="M 600 377 C 600 367.6111584 622.6096176 360 650.5 360 C 678.3903824 360 701 367.6111584 701 377 C 701 386.3888416 678.3903824 394 650.5 394 C 622.6096176 394 600 386.3888416 600 377 Z" stroke-miterlimit="10"/></g><g transform="translate(-206,-110) scale(1,1)"><g><path fill="none" stroke="none"/><text fill="#000000" stroke="none" font-family="Arial" font-size="13px" font-style="normal" font-weight="bold" text-decoration="none" x="621.85302734375" y="382.5">s'inscrire</text></g></g><g transform="translate(-206,-110) scale(1,1)"><path fill="#C0C0C0" stroke="none" d="M 583 451 C 583 439.954304 623.0705104 431 672.5 431 C 721.9294896 431 762 439.954304 762 451 C 762 462.045696 721.9294896 471 672.5 471 C 623.0705104 471 583 462.045696 583 451 Z" opacity="0.2"/></g><g transform="translate(-206,-110) scale(1,1)"><path fill="#ffffff" stroke="none" d="M 576 444 C 576 432.954304 616.0705104 424 665.5 424 C 714.9294896 424 755 432.954304 755 444 C 755 455.045696 714.9294896 464 665.5 464 C 616.0705104 464 576 455.045696 576 444 Z"/></g><g transform="translate(-206,-110) scale(1,1)"><path fill="none" stroke="#000000" d="M 576 444 C 576 432.954304 616.0705104 424 665.5 424 C 714.9294896 424 755 432.954304 755 444 C 755 455.045696 714.9294896 464 665.5 464 C 616.0705104 464 576 455.045696 576 444 Z" stroke-miterlimit="10"/></g><g transform="translate(-206,-110) scale(1,1)"><g><path fill="none" stroke="none"/><text fill="#000000" stroke="none" font-family="Arial" font-size="13px" font-style="normal" font-weight="bold" text-decoration="none" x="606.635009765625" y="449.5">consulter un projet</text></g></g><g transform="translate(-206,-110) scale(1,1)"><path fill="none" stroke="#000000" d="M 342 322 L 592 241" stroke-miterlimit="10"/></g><g transform="translate(-206,-110) scale(1,1)"><path fill="none" stroke="#000000" d="M 342 335 L 599 305" stroke-miterlimit="10"/></g><g transform="translate(-206,-110) scale(1,1)"><path fill="none" stroke="#000000" d="M 342 349 L 599 372" stroke-miterlimit="10"/></g><g transform="translate(-206,-110) scale(1,1)"><path fill="none" stroke="#000000" d="M 342 360 L 585 423" stroke-miterlimit="10"/></g></g></svg>