<svg version="1.1" xmlns="http://www.w3.org/2000/svg" xmlns:xlink="http://www.w3.org/1999/xlink" width="916" height="820"><defs/><g><text fill="#eeeeee" stroke="none" font-family="Arial" font-size="24px" font-style="normal" font-weight="normal" text-decoration="none" x="0" y="0">UNREGISTERED</text><text fill="#eeeeee" stroke="none" font-family="Arial" font-size="24px" font-style="normal" font-weight="normal" text-decoration="none" x="0" y="30">UNREGISTERED</text><text fill="#eeeeee" stroke="none" font-family="Arial" font-size="24px" font-style="normal" font-weight="normal" text-decoration="none" x="0" y="60">UNREGISTERED</text><text fill="#eeeeee" stroke="none" font-family="Arial" font-size="24px" font-style="normal" font-weight="normal" text-decoration="none" x="0" y="90">UNREGISTERED</text><text fill="#eeeeee" stroke="none" font-family="Arial" font-size="24px" font-style="normal" font-weight="normal" text-decoration="none" x="0" y="120">UNREGISTERED</text><text fill="#eeeeee" stroke="none" font-family="Arial" font-size="24px" font-style="normal" font-weight="normal" text-decoration="none" x="0" y="150">UNREGISTERED</text><text fill="#eeeeee" stroke="none" font-family="Arial" font-size="24px" font-style="normal" font-weight="normal" text-decoration="none" x="0" y="180">UNREGISTERED</text><text fill="#eeeeee" stroke="none" font-family="Arial" font-size="24px" font-style="normal" font-weight="normal" text-decoration="none" x="0" y="210">UNREGISTERED</text><text fill="#eeeeee" stroke="none" font-family="Arial" font-size="24px" font-style="normal" font-weight="normal" text-decoration="none" x="0" y="240">UNREGISTERED</text><text fill="#eeeeee" stroke="none" font-family="Arial" font-size="24px" font-style="normal" font-weight="normal" text-decoration="none" x="0" y="270">UNREGISTERED</text><text fill="#eeeeee" stroke="none" font-family="Arial" font-size="24px" font-style="normal" font-weight="normal" text-decoration="none" x="0" y="300">UNREGISTERED</text><text fill="#eeeeee" stroke="none" font-family="Arial" font-size="24px" font-style="normal" font-weight="normal" text-decoration="none" x="0" y="330">UNREGISTERED</text><text fill="#eeeeee" stroke="none" font-family="Arial" font-size="24px" font-style="normal" font-weight="normal" text-decoration="none" x="0" y="360">UNREGISTERED</text><text fill="#eeeeee" stroke="none" font-family="Arial" font-size="24px" font-style="normal" font-weight="normal" text-decoration="none" x="0" y="390">UNREGISTERED</text><text fill="#eeeeee" stroke="none" font-family="Arial" font-size="24px" font-style="normal" font-weight="normal" text-decoration="none" x="0" y="420">UNREGISTERED</text><text fill="#eeeeee" stroke="none" font-family="Arial" font-size="24px" font-style="normal" font-weight="normal" text-decoration="none" x="0" y="450">UNREGISTERED</text><text fill="#eeeeee" stroke="none" font-family="Arial" font-size="24px" font-style="normal" font-weight="normal" text-decoration="none" x="0" y="480">UNREGISTERED</text><text fill="#eeeeee" stroke="none" font-family="Arial" font-size="24px" font-style="normal" font-weight="normal" text-decoration="none" x="0" y="510">UNREGISTERED</text><text fill="#eeeeee" stroke="none" font-family="Arial" font-size="24px" font-style="normal" font-weight="normal" text-decoration="none" x="0" y="540">UNREGISTERED</text><text fill="#eeeeee" stroke="none" font-family="Arial" font-size="24px" font-style="normal" font-weight="normal" text-decoration="none" x="0" y="570">UNREGISTERED</text><text fill="#eeeeee" stroke="none" font-family="Arial" font-size="24px" font-style="normal" font-weight="normal" text-decoration="none" x="0" y="600">UNREGISTERED</text><text fill="#eeeeee" stroke="none" font-family="Arial" font-size="24px" font-style="normal" font-weight="normal" text-decoration="none" x="0" y="630">UNREGISTERED</text><text fill="#eeeeee" stroke="none" font-family="Arial" font-size="24px" font-style="normal" font-weight="normal" text-decoration="none" x="0" y="660">UNREGISTERED</text><text fill="#eeeeee" stroke="none" font-family="Arial" font-size="24px" font-style="normal" font-weight="normal" text-decoration="none" x="0" y="690">UNREGISTERED</text><text fill="#eeeeee" stroke="none" font-family="Arial" font-size="24px" font-style="normal" font-weight="normal" text-decoration="none" x="0" y="720">UNREGISTERED</text><text fill="#eeeeee" stroke="none" font-family="Arial" font-size="24px" font-style="normal" font-weight="normal" text-decoration="none" x="0" y="750">UNREGISTERED</text><text fill="#eeeeee" stroke="none" font-family="Arial" font-size="24px" font-style="normal" font-weight="normal" text-decoration="none" x="0" y="780">UNREGISTERED</text><text fill="#eeeeee" stroke="none" font-family="Arial" font-size="24px" font-style="normal" font-weight="normal" text-decoration="none" x="0" y="810">UNREGISTERED</text><text fill="#eeeeee" stroke="none" font-family="Arial" font-size="24px" font-style="normal" font-weight="normal" text-decoration="none" x="200" y="0">UNREGISTERED</text><text fill="#eeeeee" stroke="none" font-family="Arial" font-size="24px" font-style="normal" font-weight="normal" text-decoration="none" x="200" y="30">UNREGISTERED</text><text fill="#eeeeee" stroke="none" font-family="Arial" font-size="24px" font-style="normal" font-weight="normal" text-decoration="none" x="200" y="60">UNREGISTERED</text><text fill="#eeeeee" stroke="none" font-family="Arial" font-size="24px" font-style="normal" font-weight="normal" text-decoration="none" x="200" y="90">UNREGISTERED</text><text fill="#eeeeee" stroke="none" font-family="Arial" font-size="24px" font-style="normal" font-weight="normal" text-decoration="none" x="200" y="120">UNREGISTERED</text><text fill="#eeeeee" stroke="none" font-family="Arial" font-size="24px" font-style="normal" font-weight="normal" text-decoration="none" x="200" y="150">UNREGISTERED</text><text fill="#eeeeee" stroke="none" font-family="Arial" font-size="24px" font-style="normal" font-weight="normal" text-decoration="none" x="200" y="180">UNREGISTERED</text><text fill="#eeeeee" stroke="none" font-family="Arial" font-size="24px" font-style="normal" font-weight="normal" text-decoration="none" x="200" y="210">UNREGISTERED</text><text fill="#eeeeee" stroke="none" font-family="Arial" font-size="24px" font-style="normal" font-weight="normal" text-decoration="none" x="200" y="240">UNREGISTERED</text><text fill="#eeeeee" stroke="none" font-family="Arial" font-size="24px" font-style="normal" font-weight="normal" text-decoration="none" x="200" y="270">UNREGISTERED</text><text fill="#eeeeee" stroke="none" font-family="Arial" font-size="24px" font-style="normal" font-weight="normal" text-decoration="none" x="200" y="300">UNREGISTERED</text><text fill="#eeeeee" stroke="none" font-family="Arial" font-size="24px" font-style="normal" font-weight="normal" text-decoration="none" x="200" y="330">UNREGISTERED</text><text fill="#eeeeee" stroke="none" font-family="Arial" font-size="24px" font-style="normal" font-weight="normal" text-decoration="none" x="200" y="360">UNREGISTERED</text><text fill="#eeeeee" stroke="none" font-family="Arial" font-size="24px" font-style="normal" font-weight="normal" text-decoration="none" x="200" y="390">UNREGISTERED</text><text fill="#eeeeee" stroke="none" font-family="Arial" font-size="24px" font-style="normal" font-weight="normal" text-decoration="none" x="200" y="420">UNREGISTERED</text><text fill="#eeeeee" stroke="none" font-family="Arial" font-size="24px" font-style="normal" font-weight="normal" text-decoration="none" x="200" y="450">UNREGISTERED</text><text fill="#eeeeee" stroke="none" font-family="Arial" font-size="24px" font-style="normal" font-weight="normal" text-decoration="none" x="200" y="480">UNREGISTERED</text><text fill="#eeeeee" stroke="none" font-family="Arial" font-size="24px" font-style="normal" font-weight="normal" text-decoration="none" x="200" y="510">UNREGISTERED</text><text fill="#eeeeee" stroke="none" font-family="Arial" font-size="24px" font-style="normal" font-weight="normal" text-decoration="none" x="200" y="540">UNREGISTERED</text><text fill="#eeeeee" stroke="none" font-family="Arial" font-size="24px" font-style="normal" font-weight="normal" text-decoration="none" x="200" y="570">UNREGISTERED</text><text fill="#eeeeee" stroke="none" font-family="Arial" font-size="24px" font-style="normal" font-weight="normal" text-decoration="none" x="200" y="600">UNREGISTERED</text><text fill="#eeeeee" stroke="none" font-family="Arial" font-size="24px" font-style="normal" font-weight="normal" text-decoration="none" x="200" y="630">UNREGISTERED</text><text fill="#eeeeee" stroke="none" font-family="Arial" font-size="24px" font-style="normal" font-weight="normal" text-decoration="none" x="200" y="660">UNREGISTERED</text><text fill="#eeeeee" stroke="none" font-family="Arial" font-size="24px" font-style="normal" font-weight="normal" text-decoration="none" x="200" y="690">UNREGISTERED</text><text fill="#eeeeee" stroke="none" font-family="Arial" font-size="24px" font-style="normal" font-weight="normal" text-decoration="none" x="200" y="720">UNREGISTERED</text><text fill="#eeeeee" stroke="none" font-family="Arial" font-size="24px" font-style="normal" font-weight="normal" text-decoration="none" x="200" y="750">UNREGISTERED</text><text fill="#eeeeee" stroke="none" font-family="Arial" font-size="24px" font-style="normal" font-weight="normal" text-decoration="none" x="200" y="780">UNREGISTERED</text><text fill="#eeeeee" stroke="none" font-family="Arial" font-size="24px" font-style="normal" font-weight="normal" text-decoration="none" x="200" y="810">UNREGISTERED</text><text fill="#eeeeee" stroke="none" font-family="Arial" font-size="24px" font-style="normal" font-weight="normal" text-decoration="none" x="400" y="0">UNREGISTERED</text><text fill="#eeeeee" stroke="none" font-family="Arial" font-size="24px" font-style="normal" font-weight="normal" text-decoration="none" x="400" y="30">UNREGISTERED</text><text fill="#eeeeee" stroke="none" font-family="Arial" font-size="24px" font-style="normal" font-weight="normal" text-decoration="none" x="400" y="60">UNREGISTERED</text><text fill="#eeeeee" stroke="none" font-family="Arial" font-size="24px" font-style="normal" font-weight="normal" text-decoration="none" x="400" y="90">UNREGISTERED</text><text fill="#eeeeee" stroke="none" font-family="Arial" font-size="24px" font-style="normal" font-weight="normal" text-decoration="none" x="400" y="120">UNREGISTERED</text><text fill="#eeeeee" stroke="none" font-family="Arial" font-size="24px" font-style="normal" font-weight="normal" text-decoration="none" x="400" y="150">UNREGISTERED</text><text fill="#eeeeee" stroke="none" font-family="Arial" font-size="24px" font-style="normal" font-weight="normal" text-decoration="none" x="400" y="180">UNREGISTERED</text><text fill="#eeeeee" stroke="none" font-family="Arial" font-size="24px" font-style="normal" font-weight="normal" text-decoration="none" x="400" y="210">UNREGISTERED</text><text fill="#eeeeee" stroke="none" font-family="Arial" font-size="24px" font-style="normal" font-weight="normal" text-decoration="none" x="400" y="240">UNREGISTERED</text><text fill="#eeeeee" stroke="none" font-family="Arial" font-size="24px" font-style="normal" font-weight="normal" text-decoration="none" x="400" y="270">UNREGISTERED</text><text fill="#eeeeee" stroke="none" font-family="Arial" font-size="24px" font-style="normal" font-weight="normal" text-decoration="none" x="400" y="300">UNREGISTERED</text><text fill="#eeeeee" stroke="none" font-family="Arial" font-size="24px" font-style="normal" font-weight="normal" text-decoration="none" x="400" y="330">UNREGISTERED</text><text fill="#eeeeee" stroke="none" font-family="Arial" font-size="24px" font-style="normal" font-weight="normal" text-decoration="none" x="400" y="360">UNREGISTERED</text><text fill="#eeeeee" stroke="none" font-family="Arial" font-size="24px" font-style="normal" font-weight="normal" text-decoration="none" x="400" y="390">UNREGISTERED</text><text fill="#eeeeee" stroke="none" font-family="Arial" font-size="24px" font-style="normal" font-weight="normal" text-decoration="none" x="400" y="420">UNREGISTERED</text><text fill="#eeeeee" stroke="none" font-family="Arial" font-size="24px" font-style="normal" font-weight="normal" text-decoration="none" x="400" y="450">UNREGISTERED</text><text fill="#eeeeee" stroke="none" font-family="Arial" font-size="24px" font-style="normal" font-weight="normal" text-decoration="none" x="400" y="480">UNREGISTERED</text><text fill="#eeeeee" stroke="none" font-family="Arial" font-size="24px" font-style="normal" font-weight="normal" text-decoration="none" x="400" y="510">UNREGISTERED</text><text fill="#eeeeee" stroke="none" font-family="Arial" font-size="24px" font-style="normal" font-weight="normal" text-decoration="none" x="400" y="540">UNREGISTERED</text><text fill="#eeeeee" stroke="none" font-family="Arial" font-size="24px" font-style="normal" font-weight="normal" text-decoration="none" x="400" y="570">UNREGISTERED</text><text fill="#eeeeee" stroke="none" font-family="Arial" font-size="24px" font-style="normal" font-weight="normal" text-decoration="none" x="400" y="600">UNREGISTERED</text><text fill="#eeeeee" stroke="none" font-family="Arial" font-size="24px" font-style="normal" font-weight="normal" text-decoration="none" x="400" y="630">UNREGISTERED</text><text fill="#eeeeee" stroke="none" font-family="Arial" font-size="24px" font-style="normal" font-weight="normal" text-decoration="none" x="400" y="660">UNREGISTERED</text><text fill="#eeeeee" stroke="none" font-family="Arial" font-size="24px" font-style="normal" font-weight="normal" text-decoration="none" x="400" y="690">UNREGISTERED</text><text fill="#eeeeee" stroke="none" font-family="Arial" font-size="24px" font-style="normal" font-weight="normal" text-decoration="none" x="400" y="720">UNREGISTERED</text><text fill="#eeeeee" stroke="none" font-family="Arial" font-size="24px" font-style="normal" font-weight="normal" text-decoration="none" x="400" y="750">UNREGISTERED</text><text fill="#eeeeee" stroke="none" font-family="Arial" font-size="24px" font-style="normal" font-weight="normal" text-decoration="none" x="400" y="780">UNREGISTERED</text><text fill="#eeeeee" stroke="none" font-family="Arial" font-size="24px" font-style="normal" font-weight="normal" text-decoration="none" x="400" y="810">UNREGISTERED</text><text fill="#eeeeee" stroke="none" font-family="Arial" font-size="24px" font-style="normal" font-weight="normal" text-decoration="none" x="600" y="0">UNREGISTERED</text><text fill="#eeeeee" stroke="none" font-family="Arial" font-size="24px" font-style="normal" font-weight="normal" text-decoration="none" x="600" y="30">UNREGISTERED</text><text fill="#eeeeee" stroke="none" font-family="Arial" font-size="24px" font-style="normal" font-weight="normal" text-decoration="none" x="600" y="60">UNREGISTERED</text><text fill="#eeeeee" stroke="none" font-family="Arial" font-size="24px" font-style="normal" font-weight="normal" text-decoration="none" x="600" y="90">UNREGISTERED</text><text fill="#eeeeee" stroke="none" font-family="Arial" font-size="24px" font-style="normal" font-weight="normal" text-decoration="none" x="600" y="120">UNREGISTERED</text><text fill="#eeeeee" stroke="none" font-family="Arial" font-size="24px" font-style="normal" font-weight="normal" text-decoration="none" x="600" y="150">UNREGISTERED</text><text fill="#eeeeee" stroke="none" font-family="Arial" font-size="24px" font-style="normal" font-weight="normal" text-decoration="none" x="600" y="180">UNREGISTERED</text><text fill="#eeeeee" stroke="none" font-family="Arial" font-size="24px" font-style="normal" font-weight="normal" text-decoration="none" x="600" y="210">UNREGISTERED</text><text fill="#eeeeee" stroke="none" font-family="Arial" font-size="24px" font-style="normal" font-weight="normal" text-decoration="none" x="600" y="240">UNREGISTERED</text><text fill="#eeeeee" stroke="none" font-family="Arial" font-size="24px" font-style="normal" font-weight="normal" text-decoration="none" x="600" y="270">UNREGISTERED</text><text fill="#eeeeee" stroke="none" font-family="Arial" font-size="24px" font-style="normal" font-weight="normal" text-decoration="none" x="600" y="300">UNREGISTERED</text><text fill="#eeeeee" stroke="none" font-family="Arial" font-size="24px" font-style="normal" font-weight="normal" text-decoration="none" x="600" y="330">UNREGISTERED</text><text fill="#eeeeee" stroke="none" font-family="Arial" font-size="24px" font-style="normal" font-weight="normal" text-decoration="none" x="600" y="360">UNREGISTERED</text><text fill="#eeeeee" stroke="none" font-family="Arial" font-size="24px" font-style="normal" font-weight="normal" text-decoration="none" x="600" y="390">UNREGISTERED</text><text fill="#eeeeee" stroke="none" font-family="Arial" font-size="24px" font-style="normal" font-weight="normal" text-decoration="none" x="600" y="420">UNREGISTERED</text><text fill="#eeeeee" stroke="none" font-family="Arial" font-size="24px" font-style="normal" font-weight="normal" text-decoration="none" x="600" y="450">UNREGISTERED</text><text fill="#eeeeee" stroke="none" font-family="Arial" font-size="24px" font-style="normal" font-weight="normal" text-decoration="none" x="600" y="480">UNREGISTERED</text><text fill="#eeeeee" stroke="none" font-family="Arial" font-size="24px" font-style="normal" font-weight="normal" text-decoration="none" x="600" y="510">UNREGISTERED</text><text fill="#eeeeee" stroke="none" font-family="Arial" font-size="24px" font-style="normal" font-weight="normal" text-decoration="none" x="600" y="540">UNREGISTERED</text><text fill="#eeeeee" stroke="none" font-family="Arial" font-size="24px" font-style="normal" font-weight="normal" text-decoration="none" x="600" y="570">UNREGISTERED</text><text fill="#eeeeee" stroke="none" font-family="Arial" font-size="24px" font-style="normal" font-weight="normal" text-decoration="none" x="600" y="600">UNREGISTERED</text><text fill="#eeeeee" stroke="none" font-family="Arial" font-size="24px" font-style="normal" font-weight="normal" text-decoration="none" x="600" y="630">UNREGISTERED</text><text fill="#eeeeee" stroke="none" font-family="Arial" font-size="24px" font-style="normal" font-weight="normal" text-decoration="none" x="600" y="660">UNREGISTERED</text><text fill="#eeeeee" stroke="none" font-family="Arial" font-size="24px" font-style="normal" font-weight="normal" text-decoration="none" x="600" y="690">UNREGISTERED</text><text fill="#eeeeee" stroke="none" font-family="Arial" font-size="24px" font-style="normal" font-weight="normal" text-decoration="none" x="600" y="720">UNREGISTERED</text><text fill="#eeeeee" stroke="none" font-family="Arial" font-size="24px" font-style="normal" font-weight="normal" text-decoration="none" x="600" y="750">UNREGISTERED</text><text fill="#eeeeee" stroke="none" font-family="Arial" font-size="24px" font-style="normal" font-weight="normal" text-decoration="none" x="600" y="780">UNREGISTERED</text><text fill="#eeeeee" stroke="none" font-family="Arial" font-size="24px" font-style="normal" font-weight="normal" text-decoration="none" x="600" y="810">UNREGISTERED</text><text fill="#eeeeee" stroke="none" font-family="Arial" font-size="24px" font-style="normal" font-weight="normal" text-decoration="none" x="800" y="0">UNREGISTERED</text><text fill="#eeeeee" stroke="none" font-family="Arial" font-size="24px" font-style="normal" font-weight="normal" text-decoration="none" x="800" y="30">UNREGISTERED</text><text fill="#eeeeee" stroke="none" font-family="Arial" font-size="24px" font-style="normal" font-weight="normal" text-decoration="none" x="800" y="60">UNREGISTERED</text><text fill="#eeeeee" stroke="none" font-family="Arial" font-size="24px" font-style="normal" font-weight="normal" text-decoration="none" x="800" y="90">UNREGISTERED</text><text fill="#eeeeee" stroke="none" font-family="Arial" font-size="24px" font-style="normal" font-weight="normal" text-decoration="none" x="800" y="120">UNREGISTERED</text><text fill="#eeeeee" stroke="none" font-family="Arial" font-size="24px" font-style="normal" font-weight="normal" text-decoration="none" x="800" y="150">UNREGISTERED</text><text fill="#eeeeee" stroke="none" font-family="Arial" font-size="24px" font-style="normal" font-weight="normal" text-decoration="none" x="800" y="180">UNREGISTERED</text><text fill="#eeeeee" stroke="none" font-family="Arial" font-size="24px" font-style="normal" font-weight="normal" text-decoration="none" x="800" y="210">UNREGISTERED</text><text fill="#eeeeee" stroke="none" font-family="Arial" font-size="24px" font-style="normal" font-weight="normal" text-decoration="none" x="800" y="240">UNREGISTERED</text><text fill="#eeeeee" stroke="none" font-family="Arial" font-size="24px" font-style="normal" font-weight="normal" text-decoration="none" x="800" y="270">UNREGISTERED</text><text fill="#eeeeee" stroke="none" font-family="Arial" font-size="24px" font-style="normal" font-weight="normal" text-decoration="none" x="800" y="300">UNREGISTERED</text><text fill="#eeeeee" stroke="none" font-family="Arial" font-size="24px" font-style="normal" font-weight="normal" text-decoration="none" x="800" y="330">UNREGISTERED</text><text fill="#eeeeee" stroke="none" font-family="Arial" font-size="24px" font-style="normal" font-weight="normal" text-decoration="none" x="800" y="360">UNREGISTERED</text><text fill="#eeeeee" stroke="none" font-family="Arial" font-size="24px" font-style="normal" font-weight="normal" text-decoration="none" x="800" y="390">UNREGISTERED</text><text fill="#eeeeee" stroke="none" font-family="Arial" font-size="24px" font-style="normal" font-weight="normal" text-decoration="none" x="800" y="420">UNREGISTERED</text><text fill="#eeeeee" stroke="none" font-family="Arial" font-size="24px" font-style="normal" font-weight="normal" text-decoration="none" x="800" y="450">UNREGISTERED</text><text fill="#eeeeee" stroke="none" font-family="Arial" font-size="24px" font-style="normal" font-weight="normal" text-decoration="none" x="800" y="480">UNREGISTERED</text><text fill="#eeeeee" stroke="none" font-family="Arial" font-size="24px" font-style="normal" font-weight="normal" text-decoration="none" x="800" y="510">UNREGISTERED</text><text fill="#eeeeee" stroke="none" font-family="Arial" font-size="24px" font-style="normal" font-weight="normal" text-decoration="none" x="800" y="540">UNREGISTERED</text><text fill="#eeeeee" stroke="none" font-family="Arial" font-size="24px" font-style="normal" font-weight="normal" text-decoration="none" x="800" y="570">UNREGISTERED</text><text fill="#eeeeee" stroke="none" font-family="Arial" font-size="24px" font-style="normal" font-weight="normal" text-decoration="none" x="800" y="600">UNREGISTERED</text><text fill="#eeeeee" stroke="none" font-family="Arial" font-size="24px" font-style="normal" font-weight="normal" text-decoration="none" x="800" y="630">UNREGISTERED</text><text fill="#eeeeee" stroke="none" font-family="Arial" font-size="24px" font-style="normal" font-weight="normal" text-decoration="none" x="800" y="660">UNREGISTERED</text><text fill="#eeeeee" stroke="none" font-family="Arial" font-size="24px" font-style="normal" font-weight="normal" text-decoration="none" x="800" y="690">UNREGISTERED</text><text fill="#eeeeee" stroke="none" font-family="Arial" font-size="24px" font-style="normal" font-weight="normal" text-decoration="none" x="800" y="720">UNREGISTERED</text><text fill="#eeeeee" stroke="none" font-family="Arial" font-size="24px" font-style="normal" font-weight="normal" text-decoration="none" x="800" y="750">UNREGISTERED</text><text fill="#eeeeee" stroke="none" font-family="Arial" font-size="24px" font-style="normal" font-weight="normal" text-decoration="none" x="800" y="780">UNREGISTERED</text><text fill="#eeeeee" stroke="none" font-family="Arial" font-size="24px" font-style="normal" font-weight="normal" text-decoration="none" x="800" y="810">UNREGISTERED</text><g transform="translate(-38,-78) scale(1,1)"><rect fill="#C0C0C0" stroke="none" x="303" y="95" width="648" height="800" opacity="0.2"/></g><g transform="translate(-38,-78) scale(1,1)"><rect fill="#ffffff" stroke="none" x="296" y="88" width="648" height="800"/></g><g transform="translate(-38,-78) scale(1,1)"><path fill="none" stroke="#000000" d="M 296 88 L 944 88 L 944 888 L 296 888 L 296 88 Z Z" stroke-miterlimit="10"/></g><g transform="translate(-38,-78) scale(1,1)"><g><path fill="none" stroke="none"/><text fill="#000000" stroke="none" font-family="Arial" font-size="13px" font-style="normal" font-weight="bold" text-decoration="none" x="564.13427734375" y="106">SiteWeb connecté</text></g></g><g transform="translate(-38,-78) scale(1,1)"><path fill="#ffffff" stroke="none" d="M 192.40935031960228 441.68 C 192.40935031960228 436.886167936 196.29519264454774 433 201.088623046875 433 C 205.88205344920226 433 209.76789577414772 436.886167936 209.76789577414772 441.68 C 209.76789577414772 446.473832064 205.88205344920226 450.36 201.088623046875 450.36 C 196.29519264454774 450.36 192.40935031960228 446.473832064 192.40935031960228 441.68 Z"/></g><g transform="translate(-38,-78) scale(1,1)"><path fill="none" stroke="#000000" d="M 192.40935031960228 441.68 C 192.40935031960228 436.886167936 196.29519264454774 433 201.088623046875 433 C 205.88205344920226 433 209.76789577414772 436.886167936 209.76789577414772 441.68 C 209.76789577414772 446.473832064 205.88205344920226 450.36 201.088623046875 450.36 C 196.29519264454774 450.36 192.40935031960228 446.473832064 192.40935031960228 441.68 Z" stroke-miterlimit="10"/></g><g transform="translate(-38,-78) scale(1,1)"><path fill="none" stroke="#000000" d="M 201.088623046875 450.36 L 201.088623046875 467.64" stroke-miterlimit="10"/></g><g transform="translate(-38,-78) scale(1,1)"><path fill="none" stroke="#000000" d="M 191.89880486505683 456.84 L 210.27844122869317 456.84" stroke-miterlimit="10"/></g><g transform="translate(-38,-78) scale(1,1)"><path fill="none" stroke="#000000" d="M 201.088623046875 467.64 L 188.32498668323865 485" stroke-miterlimit="10"/></g><g transform="translate(-38,-78) scale(1,1)"><path fill="none" stroke="#000000" d="M 201.088623046875 467.64 L 213.85225941051135 485" stroke-miterlimit="10"/></g><g transform="translate(-38,-78) scale(1,1)"><g><path fill="none" stroke="none"/><text fill="#000000" stroke="none" font-family="Arial" font-size="13px" font-style="normal" font-weight="bold" text-decoration="none" x="186.635009765625" y="504">User</text></g></g><g transform="translate(-38,-78) scale(1,1)"><path fill="#ffffff" stroke="none" d="M 88.25432102272727 217.68 C 88.25432102272727 212.886167936 92.14016334767273 209 96.93359375 209 C 101.72702415232727 209 105.61286647727273 212.886167936 105.61286647727273 217.68 C 105.61286647727273 222.47383206400002 101.72702415232727 226.36 96.93359375 226.36 C 92.14016334767273 226.36 88.25432102272727 222.47383206400002 88.25432102272727 217.68 Z"/></g><g transform="translate(-38,-78) scale(1,1)"><path fill="none" stroke="#000000" d="M 88.25432102272727 217.68 C 88.25432102272727 212.886167936 92.14016334767273 209 96.93359375 209 C 101.72702415232727 209 105.61286647727273 212.886167936 105.61286647727273 217.68 C 105.61286647727273 222.47383206400002 101.72702415232727 226.36 96.93359375 226.36 C 92.14016334767273 226.36 88.25432102272727 222.47383206400002 88.25432102272727 217.68 Z" stroke-miterlimit="10"/></g><g transform="translate(-38,-78) scale(1,1)"><path fill="none" stroke="#000000" d="M 96.93359375 226.36 L 96.93359375 243.64" stroke-miterlimit="10"/></g><g transform="translate(-38,-78) scale(1,1)"><path fill="none" stroke="#000000" d="M 87.74377556818182 232.84 L 106.12341193181818 232.84" stroke-miterlimit="10"/></g><g transform="translate(-38,-78) scale(1,1)"><path fill="none" stroke="#000000" d="M 96.93359375 243.64 L 84.16995738636363 261" stroke-miterlimit="10"/></g><g transform="translate(-38,-78) scale(1,1)"><path fill="none" stroke="#000000" d="M 96.93359375 243.64 L 109.69723011363637 261" stroke-miterlimit="10"/></g><g transform="translate(-38,-78) scale(1,1)"><g><path fill="none" stroke="none"/><text fill="#000000" stroke="none" font-family="Arial" font-size="13px" font-style="normal" font-weight="bold" text-decoration="none" x="52.5" y="280">User-Premium</text></g></g><g transform="translate(-38,-78) scale(1,1)"><path fill="#ffffff" stroke="none" d="M 138.05070774147728 745.6800000000001 C 138.05070774147728 740.8861679360001 141.93655006642274 737 146.72998046875 737 C 151.52341087107726 737 155.40925319602272 740.8861679360001 155.40925319602272 745.6800000000001 C 155.40925319602272 750.473832064 151.52341087107726 754.36 146.72998046875 754.36 C 141.93655006642274 754.36 138.05070774147728 750.473832064 138.05070774147728 745.6800000000001 Z"/></g><g transform="translate(-38,-78) scale(1,1)"><path fill="none" stroke="#000000" d="M 138.05070774147728 745.6800000000001 C 138.05070774147728 740.8861679360001 141.93655006642274 737 146.72998046875 737 C 151.52341087107726 737 155.40925319602272 740.8861679360001 155.40925319602272 745.6800000000001 C 155.40925319602272 750.473832064 151.52341087107726 754.36 146.72998046875 754.36 C 141.93655006642274 754.36 138.05070774147728 750.473832064 138.05070774147728 745.6800000000001 Z" stroke-miterlimit="10"/></g><g transform="translate(-38,-78) scale(1,1)"><path fill="none" stroke="#000000" d="M 146.72998046875 754.36 L 146.72998046875 771.64" stroke-miterlimit="10"/></g><g transform="translate(-38,-78) scale(1,1)"><path fill="none" stroke="#000000" d="M 137.54016228693183 760.84 L 155.91979865056817 760.84" stroke-miterlimit="10"/></g><g transform="translate(-38,-78) scale(1,1)"><path fill="none" stroke="#000000" d="M 146.72998046875 771.64 L 133.96634410511365 789" stroke-miterlimit="10"/></g><g transform="translate(-38,-78) scale(1,1)"><path fill="none" stroke="#000000" d="M 146.72998046875 771.64 L 159.49361683238635 789" stroke-miterlimit="10"/></g><g transform="translate(-38,-78) scale(1,1)"><g><path fill="none" stroke="none"/><text fill="#000000" stroke="none" font-family="Arial" font-size="13px" font-style="normal" font-weight="bold" text-decoration="none" x="100.5" y="808">Administrateur</text></g></g><g transform="translate(-38,-78) scale(1,1)"><path fill="#C0C0C0" stroke="none" d="M 567 480 C 567 470.6111584 595.6537728 463 631 463 C 666.3462272 463 695 470.6111584 695 480 C 695 489.3888416 666.3462272 497 631 497 C 595.6537728 497 567 489.3888416 567 480 Z" opacity="0.2"/></g><g transform="translate(-38,-78) scale(1,1)"><path fill="#ffffff" stroke="none" d="M 560 473 C 560 463.6111584 588.6537728 456 624 456 C 659.3462272 456 688 463.6111584 688 473 C 688 482.3888416 659.3462272 490 624 490 C 588.6537728 490 560 482.3888416 560 473 Z"/></g><g transform="translate(-38,-78) scale(1,1)"><path fill="none" stroke="#000000" d="M 560 473 C 560 463.6111584 588.6537728 456 624 456 C 659.3462272 456 688 463.6111584 688 473 C 688 482.3888416 659.3462272 490 624 490 C 588.6537728 490 560 482.3888416 560 473 Z" stroke-miterlimit="10"/></g><g transform="translate(-38,-78) scale(1,1)"><g><path fill="none" stroke="none"/><text fill="#000000" stroke="none" font-family="Arial" font-size="13px" font-style="normal" font-weight="bold" text-decoration="none" x="583.187744140625" y="478.5">Déconnexion</text></g></g><g transform="translate(-38,-78) scale(1,1)"><path fill="#C0C0C0" stroke="none" d="M 575 328 C 575 318.6111584 610.5933583999999 311 654.5 311 C 698.4066416000001 311 734 318.6111584 734 328 C 734 337.3888416 698.4066416000001 345 654.5 345 C 610.5933583999999 345 575 337.3888416 575 328 Z" opacity="0.2"/></g><g transform="translate(-38,-78) scale(1,1)"><path fill="#ffffff" stroke="none" d="M 568 321 C 568 311.6111584 603.5933583999999 304 647.5 304 C 691.4066416000001 304 727 311.6111584 727 321 C 727 330.3888416 691.4066416000001 338 647.5 338 C 603.5933583999999 338 568 330.3888416 568 321 Z"/></g><g transform="translate(-38,-78) scale(1,1)"><path fill="none" stroke="#000000" d="M 568 321 C 568 311.6111584 603.5933583999999 304 647.5 304 C 691.4066416000001 304 727 311.6111584 727 321 C 727 330.3888416 691.4066416000001 338 647.5 338 C 603.5933583999999 338 568 330.3888416 568 321 Z" stroke-miterlimit="10"/></g><g transform="translate(-38,-78) scale(1,1)"><g><path fill="none" stroke="none"/><text fill="#000000" stroke="none" font-family="Arial" font-size="13px" font-style="normal" font-weight="bold" text-decoration="none" x="595.852294921875" y="326.5">Changer Pseudo</text></g></g><g transform="translate(-38,-78) scale(1,1)"><path fill="#C0C0C0" stroke="none" d="M 591 376 C 591 366.6111584 619.6537728 359 655 359 C 690.3462272 359 719 366.6111584 719 376 C 719 385.3888416 690.3462272 393 655 393 C 619.6537728 393 591 385.3888416 591 376 Z" opacity="0.2"/></g><g transform="translate(-38,-78) scale(1,1)"><path fill="#ffffff" stroke="none" d="M 584 369 C 584 359.6111584 612.6537728 352 648 352 C 683.3462272 352 712 359.6111584 712 369 C 712 378.3888416 683.3462272 386 648 386 C 612.6537728 386 584 378.3888416 584 369 Z"/></g><g transform="translate(-38,-78) scale(1,1)"><path fill="none" stroke="#000000" d="M 584 369 C 584 359.6111584 612.6537728 352 648 352 C 683.3462272 352 712 359.6111584 712 369 C 712 378.3888416 683.3462272 386 648 386 C 612.6537728 386 584 378.3888416 584 369 Z" stroke-miterlimit="10"/></g><g transform="translate(-38,-78) scale(1,1)"><g><path fill="none" stroke="none"/><text fill="#000000" stroke="none" font-family="Arial" font-size="13px" font-style="normal" font-weight="bold" text-decoration="none" x="607.187744140625" y="374.5">Changer Mail</text></g></g><g transform="translate(-38,-78) scale(1,1)"><path fill="#C0C0C0" stroke="none" d="M 551 427 C 551 415.954304 598.010096 407 656 407 C 713.989904 407 761 415.954304 761 427 C 761 438.045696 713.989904 447 656 447 C 598.010096 447 551 438.045696 551 427 Z" opacity="0.2"/></g><g transform="translate(-38,-78) scale(1,1)"><path fill="#ffffff" stroke="none" d="M 544 420 C 544 408.954304 591.010096 400 649 400 C 706.989904 400 754 408.954304 754 420 C 754 431.045696 706.989904 440 649 440 C 591.010096 440 544 431.045696 544 420 Z"/></g><g transform="translate(-38,-78) scale(1,1)"><path fill="none" stroke="#000000" d="M 544 420 C 544 408.954304 591.010096 400 649 400 C 706.989904 400 754 408.954304 754 420 C 754 431.045696 706.989904 440 649 440 C 591.010096 440 544 431.045696 544 420 Z" stroke-miterlimit="10"/></g><g transform="translate(-38,-78) scale(1,1)"><g><path fill="none" stroke="none"/><text fill="#000000" stroke="none" font-family="Arial" font-size="13px" font-style="normal" font-weight="bold" text-decoration="none" x="579.286865234375" y="425.5">Changer mot de passe</text></g></g><g transform="translate(-38,-78) scale(1,1)"><path fill="#C0C0C0" stroke="none" d="M 591 600 C 591 590.6111584 617.1913392 583 649.5 583 C 681.8086608 583 708 590.6111584 708 600 C 708 609.3888416 681.8086608 617 649.5 617 C 617.1913392 617 591 609.3888416 591 600 Z" opacity="0.2"/></g><g transform="translate(-38,-78) scale(1,1)"><path fill="#ffffff" stroke="none" d="M 584 593 C 584 583.6111584 610.1913392 576 642.5 576 C 674.8086608 576 701 583.6111584 701 593 C 701 602.3888416 674.8086608 610 642.5 610 C 610.1913392 610 584 602.3888416 584 593 Z"/></g><g transform="translate(-38,-78) scale(1,1)"><path fill="none" stroke="#000000" d="M 584 593 C 584 583.6111584 610.1913392 576 642.5 576 C 674.8086608 576 701 583.6111584 701 593 C 701 602.3888416 674.8086608 610 642.5 610 C 610.1913392 610 584 602.3888416 584 593 Z" stroke-miterlimit="10"/></g><g transform="translate(-38,-78) scale(1,1)"><g><path fill="none" stroke="none"/><text fill="#000000" stroke="none" font-family="Arial" font-size="13px" font-style="normal" font-weight="bold" text-decoration="none" x="605.655029296875" y="598.5">Créer projet</text></g></g><g transform="translate(-38,-78) scale(1,1)"><path fill="#C0C0C0" stroke="none" d="M 583 664 C 583 654.6111584 614.340064 647 653 647 C 691.659936 647 723 654.6111584 723 664 C 723 673.3888416 691.659936 681 653 681 C 614.340064 681 583 673.3888416 583 664 Z" opacity="0.2"/></g><g transform="translate(-38,-78) scale(1,1)"><path fill="#ffffff" stroke="none" d="M 576 657 C 576 647.6111584 607.340064 640 646 640 C 684.659936 640 716 647.6111584 716 657 C 716 666.3888416 684.659936 674 646 674 C 607.340064 674 576 666.3888416 576 657 Z"/></g><g transform="translate(-38,-78) scale(1,1)"><path fill="none" stroke="#000000" d="M 576 657 C 576 647.6111584 607.340064 640 646 640 C 684.659936 640 716 647.6111584 716 657 C 716 666.3888416 684.659936 674 646 674 C 607.340064 674 576 666.3888416 576 657 Z" stroke-miterlimit="10"/></g><g transform="translate(-38,-78) scale(1,1)"><g><path fill="none" stroke="none"/><text fill="#000000" stroke="none" font-family="Arial" font-size="13px" font-style="normal" font-weight="bold" text-decoration="none" x="600.85546875" y="662.5">Liker un projet</text></g></g><g transform="translate(-38,-78) scale(1,1)"><path fill="#C0C0C0" stroke="none" d="M 551 531 C 551 519.954304 595.5476624 511 650.5 511 C 705.4523376 511 750 519.954304 750 531 C 750 542.045696 705.4523376 551 650.5 551 C 595.5476624 551 551 542.045696 551 531 Z" opacity="0.2"/></g><g transform="translate(-38,-78) scale(1,1)"><path fill="#ffffff" stroke="none" d="M 544 524 C 544 512.954304 588.5476624 504 643.5 504 C 698.4523376 504 743 512.954304 743 524 C 743 535.045696 698.4523376 544 643.5 544 C 588.5476624 544 544 535.045696 544 524 Z"/></g><g transform="translate(-38,-78) scale(1,1)"><path fill="none" stroke="#000000" d="M 544 524 C 544 512.954304 588.5476624 504 643.5 504 C 698.4523376 504 743 512.954304 743 524 C 743 535.045696 698.4523376 544 643.5 544 C 588.5476624 544 544 535.045696 544 524 Z" stroke-miterlimit="10"/></g><g transform="translate(-38,-78) scale(1,1)"><g><path fill="none" stroke="none"/><text fill="#000000" stroke="none" font-family="Arial" font-size="13px" font-style="normal" font-weight="bold" text-decoration="none" x="577.773193359375" y="529.5">Commenter un projet</text></g></g><g transform="translate(-38,-78) scale(1,1)"><path fill="#C0C0C0" stroke="none" d="M 431 800 C 431 790.6111584 466.1456432 783 509.5 783 C 552.8543568 783 588 790.6111584 588 800 C 588 809.3888416 552.8543568 817 509.5 817 C 466.1456432 817 431 809.3888416 431 800 Z" opacity="0.2"/></g><g transform="translate(-38,-78) scale(1,1)"><path fill="#ffffff" stroke="none" d="M 424 793 C 424 783.6111584 459.1456432 776 502.5 776 C 545.8543568 776 581 783.6111584 581 793 C 581 802.3888416 545.8543568 810 502.5 810 C 459.1456432 810 424 802.3888416 424 793 Z"/></g><g transform="translate(-38,-78) scale(1,1)"><path fill="none" stroke="#000000" d="M 424 793 C 424 783.6111584 459.1456432 776 502.5 776 C 545.8543568 776 581 783.6111584 581 793 C 581 802.3888416 545.8543568 810 502.5 810 C 459.1456432 810 424 802.3888416 424 793 Z" stroke-miterlimit="10"/></g><g transform="translate(-38,-78) scale(1,1)"><g><path fill="none" stroke="none"/><text fill="#000000" stroke="none" font-family="Arial" font-size="13px" font-style="normal" font-weight="bold" text-decoration="none" x="451.57275390625" y="798.5">Valider un projet</text></g></g><g transform="translate(-38,-78) scale(1,1)"><path fill="none" stroke="#000000" d="M 227 462 L 593 339" stroke-miterlimit="10"/></g><g transform="translate(-38,-78) scale(1,1)"><path fill="none" stroke="#000000" d="M 227 465 L 583 384" stroke-miterlimit="10"/></g><g transform="translate(-38,-78) scale(1,1)"><path fill="none" stroke="#000000" d="M 227 468 L 543 432" stroke-miterlimit="10"/></g><g transform="translate(-38,-78) scale(1,1)"><path fill="none" stroke="#000000" d="M 227 471 L 559 473" stroke-miterlimit="10"/></g><g transform="translate(-38,-78) scale(1,1)"><path fill="none" stroke="#000000" d="M 227 474 L 543 512" stroke-miterlimit="10"/></g><g transform="translate(-38,-78) scale(1,1)"><path fill="#C0C0C0" stroke="none" d="M 559 743 C 559 729.7451648 606.6816688 719 665.5 719 C 724.3183312 719 772 729.7451648 772 743 C 772 756.2548352 724.3183312 767 665.5 767 C 606.6816688 767 559 756.2548352 559 743 Z" opacity="0.2"/></g><g transform="translate(-38,-78) scale(1,1)"><path fill="#ffffff" stroke="none" d="M 552 736 C 552 722.7451648 599.6816688 712 658.5 712 C 717.3183312 712 765 722.7451648 765 736 C 765 749.2548352 717.3183312 760 658.5 760 C 599.6816688 760 552 749.2548352 552 736 Z"/></g><g transform="translate(-38,-78) scale(1,1)"><path fill="none" stroke="#000000" d="M 552 736 C 552 722.7451648 599.6816688 712 658.5 712 C 717.3183312 712 765 722.7451648 765 736 C 765 749.2548352 717.3183312 760 658.5 760 C 599.6816688 760 552 749.2548352 552 736 Z" stroke-miterlimit="10"/></g><g transform="translate(-38,-78) scale(1,1)"><g><path fill="none" stroke="none"/><text fill="#000000" stroke="none" font-family="Arial" font-size="13px" font-style="normal" font-weight="bold" text-decoration="none" x="587.7109375" y="741.5">Supprimer son compte</text></g></g><g transform="translate(-38,-78) scale(1,1)"><path fill="none" stroke="#000000" d="M 115 288 L 182 431" stroke-miterlimit="10"/></g><g transform="translate(-38,-78) scale(1,1)"><path fill="#FFFFFF" stroke="none" d="M 165.7527996686363 416.16664294933423 L 182 431 L 181.00026182868345 409.02272711210935"/></g><g transform="translate(-38,-78) scale(1,1)"><path fill="none" stroke="#000000" d="M 165.7527996686363 416.16664294933423 L 182 431 L 181.00026182868345 409.02272711210935 L 165.7527996686363 416.16664294933423" stroke-miterlimit="10"/></g><g transform="translate(-38,-78) scale(1,1)"><path fill="none" stroke="#000000" d="M 227 478 L 583 577" stroke-miterlimit="10"/></g><g transform="translate(-38,-78) scale(1,1)"><path fill="none" stroke="#000000" d="M 227 482 L 603 639" stroke-miterlimit="10"/></g><g transform="translate(-38,-78) scale(1,1)"><path fill="none" stroke="#000000" d="M 227 486 L 615 711" stroke-miterlimit="10"/></g><g transform="translate(-38,-78) scale(1,1)"><path fill="none" stroke="#000000" d="M 153 735 L 194 512" stroke-miterlimit="10"/></g><g transform="translate(-38,-78) scale(1,1)"><path fill="#FFFFFF" stroke="none" d="M 198.6049043652148 533.5126673331604 L 194 512 L 182.04440615067088 530.4679120560469"/></g><g transform="translate(-38,-78) scale(1,1)"><path fill="none" stroke="#000000" d="M 198.6049043652148 533.5126673331604 L 194 512 L 182.04440615067088 530.4679120560469 L 198.6049043652148 533.5126673331604" stroke-miterlimit="10"/></g><g transform="translate(-38,-78) scale(1,1)"><path fill="#C0C0C0" stroke="none" d="M 351 272 C 351 262.6111584 392.1897984 255 443 255 C 493.8102016 255 535 262.6111584 535 272 C 535 281.3888416 493.8102016 289 443 289 C 392.1897984 289 351 281.3888416 351 272 Z" opacity="0.2"/></g><g transform="translate(-38,-78) scale(1,1)"><path fill="#ffffff" stroke="none" d="M 344 265 C 344 255.6111584 385.1897984 248 436 248 C 486.8102016 248 528 255.6111584 528 265 C 528 274.3888416 486.8102016 282 436 282 C 385.1897984 282 344 274.3888416 344 265 Z"/></g><g transform="translate(-38,-78) scale(1,1)"><path fill="none" stroke="#000000" d="M 344 265 C 344 255.6111584 385.1897984 248 436 248 C 486.8102016 248 528 255.6111584 528 265 C 528 274.3888416 486.8102016 282 436 282 C 385.1897984 282 344 274.3888416 344 265 Z" stroke-miterlimit="10"/></g><g transform="translate(-38,-78) scale(1,1)"><g><path fill="none" stroke="none"/><text fill="#000000" stroke="none" font-family="Arial" font-size="13px" font-style="normal" font-weight="bold" text-decoration="none" x="375.31640625" y="270.5">Accéder à un projet</text></g></g><g transform="translate(-38,-78) scale(1,1)"><path fill="#C0C0C0" stroke="none" d="M 423 176 C 423 166.6111584 482.76997919999997 159 556.5 159 C 630.2300208 159 690 166.6111584 690 176 C 690 185.3888416 630.2300208 193 556.5 193 C 482.76997919999997 193 423 185.3888416 423 176 Z" opacity="0.2"/></g><g transform="translate(-38,-78) scale(1,1)"><path fill="#ffffff" stroke="none" d="M 416 169 C 416 159.6111584 475.76997919999997 152 549.5 152 C 623.2300208 152 683 159.6111584 683 169 C 683 178.3888416 623.2300208 186 549.5 186 C 475.76997919999997 186 416 178.3888416 416 169 Z"/></g><g transform="translate(-38,-78) scale(1,1)"><path fill="none" stroke="#000000" d="M 416 169 C 416 159.6111584 475.76997919999997 152 549.5 152 C 623.2300208 152 683 159.6111584 683 169 C 683 178.3888416 623.2300208 186 549.5 186 C 475.76997919999997 186 416 178.3888416 416 169 Z" stroke-miterlimit="10"/></g><g transform="translate(-38,-78) scale(1,1)"><g><path fill="none" stroke="none"/><text fill="#000000" stroke="none" font-family="Arial" font-size="13px" font-style="normal" font-weight="bold" text-decoration="none" x="459.56005859375" y="174.5">Accéder à un projet premium</text></g></g><g transform="translate(-38,-78) scale(1,1)"><path fill="none" stroke="#000000" d="M 528 187 L 457 247" stroke-miterlimit="10" stroke-dasharray="3"/></g><g transform="translate(-38,-78) scale(1,1)"><path fill="none" stroke="#000000" d="M 462.04511713996834 237.22519600994488 L 457 247 L 467.4792667276894 243.6556063554148" stroke-miterlimit="10"/></g><g transform="translate(-38,-78) scale(1,1)"><g><path fill="none" stroke="none"/><text fill="#000000" stroke="none" font-family="Arial" font-size="13px" font-style="normal" font-weight="normal" text-decoration="none" x="483.5" y="244">«include»</text></g></g><g transform="translate(-38,-78) scale(1,1)"><path fill="none" stroke="#000000" d="M 147 238 L 444 187" stroke-miterlimit="10"/></g><g transform="translate(-38,-78) scale(1,1)"><path fill="none" stroke="#000000" d="M 227 448 L 415 283" stroke-miterlimit="10"/></g><g transform="translate(-38,-78) scale(1,1)"><path fill="#C0C0C0" stroke="none" d="M 591 264 C 591 254.6111584 630.6227952 247 679.5 247 C 728.3772048 247 768 254.6111584 768 264 C 768 273.3888416 728.3772048 281 679.5 281 C 630.6227952 281 591 273.3888416 591 264 Z" opacity="0.2"/></g><g transform="translate(-38,-78) scale(1,1)"><path fill="#ffffff" stroke="none" d="M 584 257 C 584 247.6111584 623.6227952 240 672.5 240 C 721.3772048 240 761 247.6111584 761 257 C 761 266.3888416 721.3772048 274 672.5 274 C 623.6227952 274 584 266.3888416 584 257 Z"/></g><g transform="translate(-38,-78) scale(1,1)"><path fill="none" stroke="#000000" d="M 584 257 C 584 247.6111584 623.6227952 240 672.5 240 C 721.3772048 240 761 247.6111584 761 257 C 761 266.3888416 721.3772048 274 672.5 274 C 623.6227952 274 584 266.3888416 584 257 Z" stroke-miterlimit="10"/></g><g transform="translate(-38,-78) scale(1,1)"><g><path fill="none" stroke="none"/><text fill="#000000" stroke="none" font-family="Arial" font-size="13px" font-style="normal" font-weight="bold" text-decoration="none" x="614.352294921875" y="262.5">Chercher un projet</text></g></g><g transform="translate(-38,-78) scale(1,1)"><path fill="none" stroke="#000000" d="M 227 459 L 632 275" stroke-miterlimit="10"/></g><g transform="translate(-38,-78) scale(1,1)"><path fill="#C0C0C0" stroke="none" d="M 407 848 C 407 838.6111584 443.936504 831 489.5 831 C 535.063496 831 572 838.6111584 572 848 C 572 857.3888416 535.063496 865 489.5 865 C 443.936504 865 407 857.3888416 407 848 Z" opacity="0.2"/></g><g transform="translate(-38,-78) scale(1,1)"><path fill="#ffffff" stroke="none" d="M 400 841 C 400 831.6111584 436.936504 824 482.5 824 C 528.063496 824 565 831.6111584 565 841 C 565 850.3888416 528.063496 858 482.5 858 C 436.936504 858 400 850.3888416 400 841 Z"/></g><g transform="translate(-38,-78) scale(1,1)"><path fill="none" stroke="#000000" d="M 400 841 C 400 831.6111584 436.936504 824 482.5 824 C 528.063496 824 565 831.6111584 565 841 C 565 850.3888416 528.063496 858 482.5 858 C 436.936504 858 400 850.3888416 400 841 Z" stroke-miterlimit="10"/></g><g transform="translate(-38,-78) scale(1,1)"><g><path fill="none" stroke="none"/><text fill="#000000" stroke="none" font-family="Arial" font-size="13px" font-style="normal" font-weight="bold" text-decoration="none" x="428.687744140625" y="846.5">Refuser un projet</text></g></g><g transform="translate(-38,-78) scale(1,1)"><path fill="none" stroke="#000000" d="M 198 778 L 423 789" stroke-miterlimit="10"/></g><g transform="translate(-38,-78) scale(1,1)"><path fill="none" stroke="#000000" d="M 198 785 L 399 825" stroke-miterlimit="10"/></g></g></svg>